<mxfile host="app.diagrams.net" modified="2023-05-19T01:54:33.723Z" agent="Mozilla/5.0 (Macintosh; Intel Mac OS X 10_15_7) AppleWebKit/537.36 (KHTML, like Gecko) Chrome/112.0.0.0 Safari/537.36" version="21.3.2" etag="gK3jQhiqb0r4qlB_4NE3" type="github">
  <diagram name="第 1 页" id="dzos2zIbpKr7QBRVmBDm">
    <mxGraphModel>
      <root>
        <mxCell id="0" />
        <mxCell id="1" parent="0" />
      </root>
    </mxGraphModel>
  </diagram>
</mxfile>
